<?xml version="1.0" encoding="utf-8"?>
<!-- Generator: Adobe Illustrator 25.4.1, SVG Export Plug-In . SVG Version: 6.00 Build 0)  -->
<svg version="1.1" id="Capa_1" xmlns="http://www.w3.org/2000/svg" xmlns:xlink="http://www.w3.org/1999/xlink" x="0px" y="0px"
	 viewBox="0 0 500 500" style="enable-background:new 0 0 500 500;" xml:space="preserve">
<style type="text/css">
	.st0{fill-rule:evenodd;clip-rule:evenodd;fill:#414042;}
</style>
<path class="st0" d="M123.6,43.7c4-6,13.6-6.3,18.2-0.9l0.7,0.9l82.1,122.4c2.3,3.4,2.6,8,0.6,11.6c-1.8,3.3-5.1,5.5-8.8,5.9
	l-1.1,0.1h-25l21.6,43.1l33.7-45.4c4.1-5.4,12.9-5.7,17.5-0.9l0.8,0.9L457.8,443c2.6,3.4,2.9,8,1,11.8c-1.7,3.5-5.1,5.8-9,6.2h-1
	H60.3c-4.3,0-8.2-2.4-10.1-6.2c-1.8-3.5-1.6-7.6,0.4-10.8l0.7-1l14.5-19.6H23.6c-3.9,0-7.5-2-9.6-5.3c-1.8-3-2.2-6.7-1-9.9l0.5-1
	l56-112.6H38.6c-3.9,0-7.6-2-9.6-5.3c-1.8-2.9-2.2-6.7-1-9.9l0.5-1L76,183.6h-25c-4.2,0-8-2.3-10-6c-1.8-3.3-1.7-7.3,0-10.7l0.6-1
	L123.6,43.7z M275.7,235.6l53.3,202.6h97.2L275.7,235.6z M254.4,243.7l-51.2,194.7h102.3L254.4,243.7z M233.1,235.6L82.7,438.4h97.2
	L233.1,235.6z M133,70.3l-60.9,90.7h22.1c3.9,0,7.6,2,9.6,5.4c1.8,2.9,2.2,6.7,1,9.9l-0.5,1l-47.4,94.3h30.7c3.9,0,7.5,2,9.6,5.3
	c1.8,3,2.2,6.7,1,9.9l-0.5,1L41.8,400.7h40.7L196.6,247l-35-69.6c-1.8-3.5-1.6-7.7,0.5-11c1.8-3,4.9-4.9,8.5-5.3l1.1-0.1h22.2
	L133,70.3z M383.8,40.2c19.1,0,36.4,10.4,45.7,26.5c30.5-5,58.2,20.4,58.2,51.1c0,27.9-22.2,50.6-49.7,51.4h-1.8h-99.8
	c-23,0-41.7-18.7-41.7-41.7c0-21.2,16-38.8,36.4-41.4C334.6,60.3,356.9,40.2,383.8,40.2z M383.8,62.7c-16.7,0-30.4,13.7-30.4,30.4
	l0.4,3.2c0.5,3.6-0.9,7.2-3.6,9.7c-2.7,2.5-6.4,3.3-9.9,2.8c-1.2-0.3-2.6-0.4-3.8-0.4c-10.6,0-19.1,8.6-19.1,19.1
	c0,10.2,7.9,18.4,17.9,19.1h1.2h99.8c16,0,28.9-13,28.9-28.9c0-18.4-16-33.9-36.8-27.7l-1.4,0.5c-2.9,1-5.9,0.8-8.7-0.5
	c-2.7-1.3-4.8-3.7-5.7-6.5C408.2,71.1,396.7,62.7,383.8,62.7z"/>
</svg>
