<?xml version="1.0" encoding="UTF-8"?>
<svg id="Capa_1" xmlns="http://www.w3.org/2000/svg" viewBox="0 0 636 377"><defs><style>.cls-1{fill:#ffc220;}.cls-2{fill:#f97fb5;}.cls-2,.cls-3,.cls-4,.cls-5,.cls-6,.cls-7,.cls-8,.cls-9,.cls-10,.cls-11,.cls-12,.cls-13{fill-rule:evenodd;}.cls-3{fill:#636569;}.cls-4{fill:#4ec2c3;}.cls-5{fill:#93d500;}.cls-6{fill:#a7a8a9;}.cls-7{fill:#fce53f;}.cls-8{fill:#923a7f;}.cls-9{fill:#ffe800;}.cls-10{fill:#ff4438;}.cls-11{fill:#00afaa;}.cls-12{fill:#00b2e3;}.cls-13{fill:#0071dc;}</style></defs><g><path class="cls-5" d="M342.86,72.97c-.34-1.33-.68-2.66-1.02-3.99,.11-11.14,.18-22.28,.33-33.41,.1-7.87,4.41-13.07,10.74-13.09,6.31-.02,11,5.28,11.01,12.99,.02,12.88-.21,25.76-.33,38.64-6.48-10.45-13.93-10.86-20.74-1.14Z"/><path class="cls-2" d="M235.46,257c-5.78-2.85-12.5-3.16-17.8-7.56-9.09-7.56-12.67-17.55-13.66-28.7-1-11.28-.67-22.6-.08-33.91,6.04,4.94,13.86,4.64,20.76,7.05,.47,10.01-.89,20.08,1.2,30.06,1.31,6.25,4.44,10.2,11.09,11.1,6.72,.91,13,1.16,17.58-5.21,4.2-5.84,10.32-7.37,15.28-4.1,4.93,3.25,6.01,9.61,2.66,15.71-3.68,6.71-9.61,10.49-16.64,12.99-2.41,.86-5.24,.6-7.25,2.57h-13.14Z"/><path class="cls-5" d="M319.55,257c-2.57-2.29-6.07-2.04-9.04-3.32-6.94-2.98-12.31-7.5-14.96-14.72-1.94-5.27-.27-9.59,4.5-12.31,4.81-2.74,9.96-2.08,12.78,2.53,3.7,6.07,8.86,7.17,15.03,6.94,8.58-.32,12.18-3.29,14.08-11.72,1.65-7.32,1.39-14.76,1.33-22.19-.06-7.34,3.8-12.03,9.86-12.12,6.02-.09,10.36,4.51,10.83,11.58,.65,9.89-.26,19.69-2.63,29.27-3.19,12.95-11.14,21.51-24.48,24.52-1.44,.33-3.11,.13-4.16,1.54h-13.14Z"/><path class="cls-7" d="M58.08,257c.03-.41-.04-.8-.21-1.17,5.01-3.21,10-3.28,14.97,.08-.07,.37-.17,.73-.3,1.09h-14.45Z"/><path class="cls-4" d="M143.48,257c.03-.4-.04-.79-.21-1.16,5.02-3.22,10.01-3.33,14.98,.11-.02,.37-.13,.72-.32,1.05h-14.45Z"/><path class="cls-9" d="M48.95,79.69c0,14.44,.04,28.87-.02,43.31-.03,7.82-4.37,12.68-11.03,12.63-6.53-.06-11.2-5.19-11.22-12.72-.06-28.65-.06-57.3,0-85.96,.02-8.11,4.58-12.98,11.64-12.77,7.02,.2,10.59,4.45,10.61,12.87,.04,14.22,.01,28.43,.01,42.65Z"/><path class="cls-6" d="M225.05,80c0,14.43,.03,28.86-.02,43.28-.02,7.04-4.66,12.44-10.57,12.53-6.19,.09-11.46-4.89-11.51-11.94-.18-29.07-.21-58.15,0-87.22,.06-8.61,4.38-12.6,11.92-12.35,6.93,.23,10.16,4.35,10.17,13.08,.02,14.21,0,28.42,0,42.63Z"/><path class="cls-8" d="M363.6,74.1c1.22,11.17,.36,22.25-2,33.18-2.77,12.81-9.55,22.65-22.75,26.22-14.29,3.87-28.15,3.29-40.14-6.93-3.06-2.61-5.18-5.96-6.28-9.8-1.6-5.56,.26-10.09,5.36-12.67,4.83-2.45,10.06-1.73,12.81,2.92,5.36,9.05,13.44,7.91,21.32,6.34,8-1.58,8.74-8.84,9.78-15.36,.34-2.12,.13-4.34,.18-6.51-3.22-5.95-2.09-12.05-.68-18.18,2.44-5.79,6.58-9.12,13.09-8.36,5.32,.62,8.66,3.6,9.33,9.13Z"/><path class="cls-11" d="M158.25,255.95c-4.99-.04-9.99-.07-14.98-.11-17.81-3.05-27.7-13.98-29.84-33.48-1-9.07-1.64-18.19-.55-27.33,1.56-6.03,4.77-8.97,9.94-9.11,5.15-.14,8.85,2.83,10.37,8.32,.35,8.29,.35,16.6,1.11,24.85,1.28,13.71,9.4,19.11,22.72,15.68,3.13-.81,5.29-2.44,7.09-5.24,3.53-5.5,9.03-6.9,14.12-4.15,5.2,2.81,7,8.75,4.11,14.71-4.86,10.01-13.63,14.27-24.1,15.86Z"/><path class="cls-11" d="M165.94,87.15c-.45-8.72-.56-17.48-1.44-26.15-1.41-13.71-10.47-19.25-23.67-14.98-2.61,.84-4.37,2.4-5.9,4.79-3.62,5.67-9.55,7.15-14.64,4.1-4.82-2.89-6.45-8.59-3.77-14.35,4.61-9.88,13.28-14.21,23.38-15.96,25.97-4.49,43.79,9.48,45.81,35.72,.4,5.22,.54,10.47,.79,15.71-.65,2.12-.29,4.29-.32,6.43-.11,6.46-2.41,10.16-7.26,11.51-5.28,1.47-9.77-.89-12.98-6.82Z"/><path class="cls-9" d="M72.83,255.91c-4.99-.03-9.98-.06-14.97-.08-15.96-2.63-25.16-11.32-28.73-27.11-3.21-14.18-2.51-28.56-2.13-42.92,5.83,6.15,14.14,5.79,21.4,8.16-.34,8.97-.71,17.96,.7,26.86,.99,6.22,2.53,12.44,9.98,13.83,7.64,1.43,15.1,2.23,20.26-6.07,3.01-4.83,8.12-5.76,13.34-3.21,4.96,2.43,7,8.05,4.76,13.43-4.53,10.86-13.59,15.46-24.61,17.12Z"/><path class="cls-6" d="M309.22,198.5c0,2.8,.11,5-.02,7.18-.36,5.93-3.84,9.3-9.58,9.43-5.75,.13-10.19-3.65-10.29-9.51-.16-9.6-.81-19.27,1.39-28.76,3.03-13.02,9.67-23.21,23.46-26.31,13.66-3.07,27.02-2.87,37.93,7.99,1.89,1.88,3.31,4.06,4.36,6.49,2.54,5.86,1.21,10.81-3.67,13.68-4.9,2.88-9.82,1.68-13.69-3.34-4.51-5.84-10.78-7.58-18.62-5.59-6.88,1.75-9.34,6.81-10.07,13.02-.64,5.41-1.79,10.81-1.2,15.7Z"/><path class="cls-12" d="M91.97,80.44c8.83,10.84,10.88,22.86,5.1,35.59-5.42,11.92-15.1,18.41-28.25,19.44-7.18,.56-12.43-3.49-13.02-9.93-.54-5.94,3.83-10.78,10.64-11.8,7.46-1.11,11.43-4.85,11.67-10.96,.23-6.04-3.61-10.55-10.05-11.79-8.53-1.63-12.65-5.57-12.29-11.71,.39-6.53,5.15-10.04,14.08-10.4,9.41-1.28,19.01,3.74,22.12,11.56Z"/><path class="cls-10" d="M267.87,79.67c17.78,22.06,5.23,48.7-15.48,54.56-3.38,.96-6.85,1.56-10.35,1.24-5.64-.52-9.82-4.92-10.06-10.29-.24-5.37,3.52-10.24,9.03-11.25,2.56-.47,5.25-.34,7.56-1.79,4.31-2.7,6.36-6.56,5.59-11.64-.73-4.8-3.67-7.8-8.26-9.16-1.24-.37-2.59-.35-3.88-.59-6.23-1.17-10.18-5.53-10.06-11.05,.13-5.87,4.51-10.15,11.01-10.71,1.09-.09,2.18-.12,3.27-.18,8.2-1.34,17.99,3.58,21.63,10.86Z"/><path class="cls-2" d="M112.22,102.87c-.37-17.98,15.56-34.26,33.1-33.81,6.4,.16,10.76,3.83,11.33,9.53,.58,5.79-2.8,10.41-8.83,11.99-1.26,.33-2.58,.42-3.86,.67-6.06,1.17-9.92,5.59-9.52,11.46,.4,5.99,4.03,9.51,9.7,10.87,2.09,.5,4.34,.09,6.39,1.16,5.22,2.71,7.17,7.2,5.89,12.6-1.32,5.55-5.69,8.33-11.21,8.35-17.1,.07-32.63-15.53-32.99-32.81Z"/><path class="cls-6" d="M342.86,72.97c-1.74,6.1-.19,12.38-1,18.54-15.09,2.72-29.21,1.67-40.26-10.67-6.95-7.75-8.46-17.55-9.39-27.33-.61-6.49-.38-13.09-.19-19.63,.18-6.24,5.15-10.84,10.94-10.59,5.82,.25,9.86,4.46,10.12,10.71,.31,7.17,.31,14.34,.77,21.53,1,15.53,13.13,17.98,23.68,14.94,1.46-.42,2.88-.98,4.32-1.48,1.52,1.03,.73,2.64,1.01,3.99Z"/><path class="cls-2" d="M48.4,193.96c-2.37-.09-4.76-.42-7.1-.23-6.61,.56-11.17-2.34-14.31-7.93,.01-2.13,.02-4.25,.03-6.38,2.61-9.12,11.3-12.29,21.68-7.92,12.2,.03,24.39,.03,36.59,.12,7.96,.06,13.42,4.71,13.35,11.19-.07,6.24-5.3,10.79-13,10.91-12.41,.19-24.82,.18-37.23,.25Z"/><path class="cls-12" d="M224.67,193.89c-2.8-.1-5.62-.4-8.41-.25-5.6,.31-9.5-2.23-12.34-6.8-.02-2.75-.05-5.49-.07-8.24,1.09-8.15,10.68-11.17,20.73-7.22,12.21,.07,24.42,.11,36.63,.22,8.35,.07,13.42,4.25,13.47,10.97,.05,6.74-5,10.94-13.39,11.03-12.21,.13-24.42,.19-36.63,.28Z"/><path class="cls-6" d="M91.97,80.44c-5.85-6.76-13.41-10.26-22.12-11.56,5.46-3.15,9.6-7.21,7.88-14.15-1.6-6.47-6.67-8.46-12.79-9.19-5.39-.64-9.48-5.83-9.28-10.91,.22-5.66,4.65-9.95,10.63-10.3,23.66-1.37,40.94,24.46,31,46.44-1.51,3.34-3.54,6.45-5.33,9.67Z"/><path class="cls-12" d="M267.87,79.67c-6.09-5.84-13.16-9.76-21.63-10.86,5.37-2.97,9.24-6.94,7.81-13.64-1.41-6.6-6.27-8.78-12.53-9.46-5.95-.65-9.97-5.88-9.52-11.38,.46-5.71,4.94-10.04,10.93-10.06,13.25-.05,23.28,5.96,29.38,17.52,7.08,13.4,5.05,26.19-4.43,37.88Z"/><path class="cls-6" d="M164.41,178.3c0-6.77-.11-13.54,.03-20.31,.14-6.98,4.53-11.52,10.76-11.41,5.99,.11,10.27,4.49,10.33,11.15,.13,13.98,.13,27.96,0,41.94-.06,6.47-4.57,11.1-10.39,11.18-5.79,.08-10.52-4.57-10.68-10.92-.18-7.2-.04-14.42-.05-21.62Z"/><path class="cls-10" d="M133.2,194.24c-7.08-9.26-14.04-8.99-20.32,.79-1.16-13.31-.52-26.65-.34-39.97,.08-5.97,4.61-9.85,10.13-10.02,5.9-.17,10.68,3.59,10.86,9.92,.36,13.08,.93,26.19-.33,39.27Z"/><path class="cls-6" d="M165.94,87.15c3.47,3.93,7.43,7.07,13.01,5.19,3.93-1.32,6.46-4.2,6.83-8.67,.21-2.55-.68-5.22,.72-7.66,.05,16.17,.32,32.34,.05,48.5-.11,6.89-5.41,11.6-11.26,11.21-5.8-.39-9.64-4.96-9.64-11.87,0-12.24,.18-24.47,.29-36.71Z"/><path class="cls-6" d="M48.7,171.5c-3.27,.03-6.55,.17-9.82,.08-5.84-.17-9.13,3.39-11.86,7.85-.1-7.63-.45-15.26-.24-22.88,.19-7.13,4.53-11.37,10.88-11.4,6.42-.03,10.58,4.12,10.93,11.3,.25,5.01,.08,10.03,.1,15.05Z"/><path class="cls-8" d="M224.58,171.38c-2.82,.08-5.66,.37-8.46,.2-5.69-.34-9.5,2.36-12.27,7.01-.1-7.86-.45-15.74-.23-23.6,.17-6.09,4.27-9.86,9.97-10,5.84-.15,10.46,3.81,10.88,9.98,.37,5.45,.1,10.93,.11,16.4Z"/></g><g><path class="cls-3" d="M603.48,133.48c-7.15-42.23-30.91-70.9-70.66-86.41-2.95-1.15-3.95-2.76-4.38-5.66-.96-6.45-4-11.97-8.46-16.7-2.58-2.73-5.6-3.64-8.7-1.07-3.29,2.72-3.26,5.86-.55,9.17,2.14,2.62,4.65,5.14,4.6,8.94-5.86,1.09-9.05-1-10.48-6.68-1.13-4.5-4.09-8.2-7.6-11.29-2.46-2.16-5.21-2.19-7.76-.14-2.59,2.1-2.77,4.89-1.46,7.71,.63,1.34,1.95,2.35,2.76,3.63,.99,1.58,3.09,3.09,1.87,5.14-.96,1.62-3.17,.9-4.84,1.2-3.05,.55-2.97-1.96-3.53-3.62-1.77-5.28-4.34-10.05-8.5-13.79-2.64-2.37-5.59-2.47-8.24,.02-2.61,2.44-2.92,5.27-.68,8.2,.8,1.04,1.68,2.02,2.44,3.09,4.88,6.85,4.52,7.86-3.52,10.16-49,14.03-81.3,62.25-76.43,114.09,4.71,50.17,45.72,91.45,95.66,96.32,6.94,1.15,13.93,.23,20.9,.53,31.11-.29,55.24-14.82,74.9-37.59,14.21-16.46,22.42-35.73,23.84-57.64,0-8.76,0-15.03-.75-24.37-.3-1.11-.36-2.74-.44-3.24Zm-186.85,51.79c-2.06,1.37-3.71,2.25-4.94-.9-3.37-8.57-5.86-17.34-6.8-27.22-.65-3.31,1.55-3.68,4.69-3.23,6.9,.99,12.44,6.24,14.22,13.64,1.54,6.4-1.6,13.99-7.17,17.7Zm153.99,18.32c-15.08,19.93-34.96,32.51-59.61,36.02-35.59,5.07-64.83-7.16-87.56-35.05-2.76-3.38-3.7-5.33,.96-8.4,11.13-7.31,15.53-20.08,12.32-32.75-3.19-12.57-13.17-21.68-26.46-22.94-4.96-.47-5.46-1.82-4.62-6.27,6.81-35.92,27.67-59.74,62.35-73.39-1.11,2.7-2.07,4.34-2.44,6.1-.56,2.65,.73,4.8,3.06,5.96,2.52,1.26,5.16,1.06,7.34-.9,2.96-2.68,5.49-5.87,6.63-9.64,1.55-5.12,4.8-6.1,9.79-5.11,.18,2.4-1.59,3.77-2.87,5.32-2.73,3.3-3.57,6.91,0,9.81,3.58,2.9,7.09,1.32,9.65-2.01,1.98-2.58,4.27-5.23,5.23-8.24,1.63-5.12,4.37-5.88,8.85-3.72,.51,2.64-1.95,3.63-3.05,5.33-1.93,2.97-2.1,5.93,.6,8.29,2.86,2.5,6.14,2.27,8.83-.4,1.84-1.83,3.62-3.91,4.76-6.21,1.65-3.35,3.68-3.66,6.82-2.26,31.76,14.16,51.02,38,56.75,72.56,.61,3.69-.25,4.69-3.97,5.24-14.04,2.07-23.81,10.55-26.46,22.91-2.94,13.77,1.13,25.23,12.94,33.16,4.08,2.74,1.82,4.43,.18,6.6Zm17.85-45.07c-1.3,8.63-3.27,17.04-6.41,25.19-1.17,3.03-2.53,3.49-5.1,1.44-4.59-3.66-6.8-8.34-6.74-14.15,.1-8.04,6.55-15.65,13.92-16.54,3.15-.38,4.95,.03,4.34,4.06Z"/><path class="cls-3" d="M495.55,204.45c-6.32-.26-13.48-2.41-19.1-8.23-2.96-3.07-4.6-6.82-4.88-11.14-.27-4.23,1.1-7.45,5.58-8.21,4.32-.74,7.18,1.3,8.08,5.64,1.39,6.67,6.51,7.61,11.94,7.61,5.44,0,10.41-1.05,11.91-7.68,1.03-4.54,4.33-6.7,8.83-5.39,4.51,1.32,5.65,5,4.83,9.4-1.96,10.57-12.44,17.93-27.19,18Z"/><path class="cls-3" d="M534.09,142.49c-7.8-.24-16.21-3.39-23.45-9.58-3.62-3.09-5.12-6.92-1.8-10.83,3.08-3.61,6.84-2.79,10.48-.12,12.34,9.07,21.46,9.1,33.23,.03,3.6-2.78,7.26-3.63,10.48-.11,3.52,3.86,2.03,7.54-1.5,10.79-6.55,6.03-16.26,9.8-27.43,9.81Z"/><path class="cls-3" d="M457.14,142.57c-9.44-.44-18.11-3.43-25.36-10.08-3.29-3.01-4.79-6.62-1.63-10.33,3.08-3.61,6.9-2.96,10.53-.36,13.02,9.35,20.53,9.31,33.69-.1,3.65-2.61,7.47-3.06,10.5,.56,2.87,3.43,1.76,6.96-1.34,9.87-7.34,6.89-16.17,10.08-26.4,10.43Z"/><path class="cls-3" d="M508.44,157.68c-.13,1.37-.66,2.6-1.97,3.11-1.53,.6-2.99,.35-3.94-1.22-3.74-6.17-7.39-5.75-10.97,.15-.8,1.32-2.06,1.54-3.38,1.18-1.86-.5-1.96-2.06-1.94-3.64,.07-4.7,5.05-8.18,11.49-8.01,5.63,.15,10.87,4.27,10.72,8.43Z"/></g><g><g><path class="cls-13" d="M390.16,292.67s-4.7,16.06-7.9,28.94l-1.49,4.92c-.67,2.46,1.12,2.46,1.12,2.46h9.02l-2.16,8.03h-10.14c-2.46,.22-4.91-.54-6.79-2.1-1.62-1.69-2.19-4.09-1.49-6.29,0-1.01,4.32-16.78,4.32-16.78l5.44-18.88,10.07-.29Z"/><path class="cls-13" d="M454.73,292.67l-7.46,28.94c-2.71,8.73-10.75,14.88-20.13,15.41-9.02,.72-16.63-2.82-17.37-10.49-1.79-16.06,16.25-26.26,31.76-19.97,1.04-4.56,2.91-8.75,3.58-13.6h9.62v-.29Zm-32.81,23.44c-2.35,3.43-2.77,7.78-1.12,11.57,2.16,3.83,9.39,3.83,13.05,1.01,3.65-2.82,5-10.85,6.49-16.06-6.08-3.93-14.29-2.38-18.42,3.47"/><path class="cls-13" d="M459.8,322.77c-1.86,10.49,14.39,8.75,19.83,4.92-.56,2.53-.93,5.09-1.12,7.67-12.6,3.83-27.07,1.01-28.11-9.77-1.42-13.31,9.69-20.33,21.62-21.05,6.86-.36,14.47,.72,16.63,5.28,1,2.86,.44,6.02-1.49,8.39-7.99,5.34-18,7-27.36,4.56m9.32-4.92c4.03,0,11.18-1.74,9.77-5.21-.75-2.1-5.44-2.82-8.28-2.1-3.94,.82-7.35,3.21-9.39,6.58,2.58,.61,5.25,.86,7.9,.72"/><path class="cls-13" d="M518.93,304.9l-2.54,7.23c-2.54-.72-3.58-2.1-7.46-1.74-9.02,1.01-11.18,12.23-12.97,20.98l-.75,5.21h-9.69c2.54-10.49,5.07-21.7,7.9-32.19h9.39v2.46c4.99-2.55,10.75-3.3,16.25-2.1"/><path class="cls-13" d="M410.37,304.9c-2.54,10.49-5.44,21.34-7.46,31.83h-9.69c2.16-8.39,3.95-16.78,6.11-25.18h-5.07l1.86-6.66h14.24Z"/><path class="cls-13" d="M412.16,296.87c0,3.11-2.83,4.56-6.11,4.56-2.59,.64-5.23-.88-5.89-3.4-.66-2.52,.91-5.08,3.5-5.71,.78-.19,1.6-.19,2.39,0,3.58,0,6.11,2.1,6.11,4.56"/><path class="cls-1" d="M563.97,302.44c1.54,.09,2.99-.74,3.65-2.1l1.79-19.6c0-2.1-2.54-3.47-5.44-3.47s-5.37,1.74-5.37,3.47l1.79,19.6c.64,1.34,2.06,2.17,3.58,2.1h0Z"/><path class="cls-1" d="M553.15,308.73c.94-1.12,.94-2.72,0-3.83l-16.4-11.21c-1.79-1.01-4.32,.36-5.82,2.82-1.37,1.93-1.22,4.53,.37,6.29l18.42,8.39c1.47-.34,2.76-1.22,3.58-2.46h-.15Z"/><path class="cls-1" d="M575.15,308.73c1.12,1.45,2.54,2.46,3.65,1.81l18.34-8.46c1.86-1.01,2.16-3.83,.37-6.29-.98-2.14-3.39-3.3-5.74-2.75l-16.63,11.14c-.87,1.4-.87,3.16,0,4.56h0Z"/><path class="cls-1" d="M563.97,327.18c1.54-.09,2.99,.74,3.65,2.1l1.79,19.6c0,2.1-2.54,3.47-5.44,3.47s-5.37-1.74-5.37-3.47l1.79-19.6c.64-1.34,2.06-2.17,3.58-2.1h0Z"/><path class="cls-1" d="M575.15,321.03c1.12-1.45,2.54-2.46,3.65-1.81l18.34,8.46c1.86,1.01,2.16,3.83,.37,6.29-.98,2.14-3.39,3.3-5.74,2.75l-16.63-11.14c-.85-1.41-.85-3.15,0-4.56h0Z"/><path class="cls-1" d="M553.15,321.03c.94,1.12,.94,2.72,0,3.83l-16.93,11.5c-1.79,1.09-4.32,0-5.74-2.75-1.51-1.84-1.51-4.45,0-6.29l18.42-8.39c1.68-.39,3.39,.52,3.95,2.1h.3Z"/><path class="cls-1" d="M603.5,332.96c1.79,0,3.2,1.35,3.2,3.06s-1.41,3.11-3.22,3.11-3.24-1.35-3.24-3.11,1.43-3.06,3.24-3.06h.02Zm-.04,.54c-1.43,0-2.52,1.14-2.52,2.53s1.09,2.55,2.56,2.55c1.43,.02,2.48-1.12,2.48-2.52s-1.05-2.55-2.5-2.55h-.02Zm-.56,4.22h-.61v-3.22c.34-.06,.69-.1,1.15-.1,.56,0,.83,.1,1.05,.25,.2,.13,.34,.39,.34,.68,0,.41-.3,.66-.66,.77v.04c.3,.12,.46,.37,.56,.77,.1,.5,.16,.69,.24,.81h-.64c-.1-.12-.18-.4-.26-.85-.08-.35-.3-.5-.78-.5h-.4v1.35Zm0-1.81h.42c.46,0,.85-.14,.85-.52,0-.31-.2-.52-.79-.52-.24,0-.38,.02-.48,.04v1Z"/></g><path class="cls-13" d="M327.02,305.61l-5.3,20.55c-1.92,6.2-7.64,10.57-14.3,10.94-6.41,.51-11.81-2-12.34-7.45-1.27-11.41,11.54-18.65,22.56-14.18,.74-3.24,2.07-6.22,2.54-9.66h6.83v-.21Zm-23.3,16.65c-1.67,2.44-1.97,5.52-.79,8.22,1.54,2.72,6.67,2.72,9.27,.72,2.59-2,3.55-7.71,4.61-11.41-4.32-2.79-10.15-1.69-13.08,2.47"/><path class="cls-13" d="M330.62,326.99c-1.32,7.45,10.22,6.22,14.09,3.49-.4,1.79-.66,3.61-.79,5.45-8.95,2.72-19.22,.72-19.96-6.94-1.01-9.45,6.88-14.44,15.36-14.95,4.87-.26,10.27,.51,11.81,3.75,.71,2.03,.31,4.28-1.06,5.96-5.68,3.79-12.78,4.97-19.43,3.24m6.62-3.49c2.86,0,7.94-1.23,6.94-3.7-.53-1.49-3.87-2-5.88-1.49-2.8,.58-5.22,2.28-6.67,4.68,1.84,.43,3.73,.61,5.61,.51"/></g></svg>
