<?xml version="1.0" encoding="utf-8"?>
<!-- Generator: Adobe Illustrator 25.4.1, SVG Export Plug-In . SVG Version: 6.00 Build 0)  -->
<svg version="1.1" id="Capa_1" xmlns="http://www.w3.org/2000/svg" xmlns:xlink="http://www.w3.org/1999/xlink" x="0px" y="0px"
	 viewBox="0 0 500 500" style="enable-background:new 0 0 500 500;" xml:space="preserve">
<style type="text/css">
	.st0{fill-rule:evenodd;clip-rule:evenodd;fill:#414042;}
</style>
<path class="st0" d="M51.1,50.7c16.2-15.6,42.2-15.5,59.1-0.3l1.5,1.4l21.5,21.5c2.6,2.5,5.9,4.2,9.5,4.5l1.5,0.1
	c3.7,0,7.2-1.3,10.1-3.6l1-0.9l10.9-10.9c16.7-16.8,43.9-17.4,60.7-1.3c5.9,5.6,9.1,12.7,11,20.3c19.3-10,44.3-7.8,60,8
	c9.7,9.6,15,22.5,15,36.1c0,5.6-1.4,10.9-3.2,16.1c39.4,2,77,17.5,105.3,45.9c30.3,30.3,46.9,70.5,46.9,113.2
	c0,42.8-16.6,83-46.9,113.2c-30.2,30.3-70.5,46.9-113.2,46.9s-82.9-16.6-113.2-46.9c-28.3-28.3-43.8-65.9-45.8-105.3
	c-5.2,1.7-10.5,3.2-16.1,3.2c-13.7,0-26.5-5.3-36.1-15c-9.7-9.6-15-22.5-15-36.1c0-8,2.3-15.4,5.8-22.4c-7.8-2-15.1-4.8-20.8-10.8
	c-15.7-16.2-15.6-42.3-0.3-59.1l1.4-1.5l10.9-10.9c5.8-5.8,6-14.9,0.9-21.1l-0.9-1l-22.2-22.2c-8.2-8.1-12.6-19.1-12.6-30.6
	C38.1,69.5,42.7,58.8,51.1,50.7z M397,205.7c-26.8-26.9-63.4-40.6-100.9-38.8l-3.4,0.2L168.1,291.6c-2.6,38.8,11.1,76.7,38.7,104.2
	c25.4,25.4,59.2,39.4,95.1,39.4c36,0,69.7-14,95.1-39.4c25.4-25.4,39.4-59.1,39.4-95.1C436.3,264.9,422.3,231.2,397,205.7z
	 M238.7,237.7c34.9-34.9,91.5-34.8,126.3,0c16.9,16.9,26.2,39.3,26.2,63.2c0,23.9-9.3,46.3-26.2,63.2
	c-16.9,16.9-39.3,26.2-63.2,26.2c-23.8,0-46.3-9.3-63.2-26.2C203.9,329.2,203.9,272.6,238.7,237.7z M301.8,237.3
	c-16.3,0-32.6,6.2-44.9,18.6c-24.8,24.8-24.8,65.2,0,90c24.1,24,66,24,90,0c12-12,18.7-28,18.7-44.9c0-17-6.6-32.9-18.7-44.9
	C334.5,243.5,318.2,237.3,301.8,237.3z M261.9,100.3c-5.9,0-11.8,2-16.5,6.1l-1.4,1.3L108.7,242.9c-9.8,9.9-9.8,26,0,35.9
	c9.5,9.5,24.8,9.8,34.7,1.1l1.2-1.1l135.2-135.2c9.8-9.9,9.8-26,0-35.9C274.8,102.8,268.3,100.3,261.9,100.3z M80.5,64.6
	c-4.2,0-8.4,1.5-11.6,4.6c-3.4,3.2-5.2,7.5-5.3,12.1c0,4.2,1.4,8.1,4,11.1l1,1.1l22.2,22.2c15.6,15.6,16,40.8,1.4,57l-1.4,1.5
	l-10.9,10.9c-7,7-7.4,18-0.9,24.7c2.9,3,6.6,4.7,10.7,5.2l1.7,0.1c4.1,0,7.9-1.4,10.9-4l1.1-1l106-105.9c3.3-3.3,5.1-7.6,5-12.3
	c-0.1-4.6-1.9-8.9-5.3-12.1c-6.4-6.1-16.5-6-23.6-0.1l-1.1,1l-10.9,10.9c-7.3,7.3-16.8,11.5-27.1,12l-2.2,0.1
	c-10.3,0-20.1-3.8-27.6-10.6l-1.6-1.5L93.6,70.1C90,66.5,85.1,64.6,80.5,64.6z"/>
</svg>
