<?xml version="1.0" encoding="utf-8"?>
<!-- Generator: Adobe Illustrator 25.4.1, SVG Export Plug-In . SVG Version: 6.00 Build 0)  -->
<svg version="1.1" id="Capa_1" xmlns="http://www.w3.org/2000/svg" xmlns:xlink="http://www.w3.org/1999/xlink" x="0px" y="0px"
	 viewBox="0 0 500 500" style="enable-background:new 0 0 500 500;" xml:space="preserve">
<style type="text/css">
	.st0{fill-rule:evenodd;clip-rule:evenodd;fill:#414042;}
</style>
<path class="st0" d="M475.4,409.4c0,9.3-7.6,16.9-16.9,16.9H41.3c-9.3,0-16.9-7.6-16.9-16.9v-8.5h451V409.4z M63,321.9h373.8
	l30.1,54.5h-434L63,321.9z M69.6,73.9l362.2,1.6v221.9H68.1L69.6,73.9z M498.4,387.1c-0.2-1.5,0.8-3,0-4.3l-42-76.1V75.5
	c0-14.4-11.7-26.1-26.1-26.1H69.6c-14.4,0-26.1,11.7-26.1,26.1v231.1l-42,76.1c-0.8,1.4,0.3,2.8,0.1,4.3c-0.4,1.4-1.6,2.4-1.6,3.9
	v18.3c0,22.8,18.6,41.4,41.4,41.4h417.2c22.9,0,41.4-18.6,41.4-41.4v-18.3C500,389.5,498.8,388.5,498.4,387.1z"/>
</svg>
