<?xml version="1.0" encoding="utf-8"?>
<!-- Generator: Adobe Illustrator 25.4.1, SVG Export Plug-In . SVG Version: 6.00 Build 0)  -->
<svg version="1.1" id="Capa_1" xmlns="http://www.w3.org/2000/svg" xmlns:xlink="http://www.w3.org/1999/xlink" x="0px" y="0px"
	 viewBox="0 0 500 500" style="enable-background:new 0 0 500 500;" xml:space="preserve">
<style type="text/css">
	.st0{fill-rule:evenodd;clip-rule:evenodd;fill:#414042;}
</style>
<path class="st0" d="M423.8,379.8c0,25.3-20.6,45.9-45.9,45.9H122.1c-25.3,0-45.8-20.6-45.8-45.9V193.6h347.5V379.8z M155.9,122.9
	h75.7h36.8h75.7c34.4,0,74.8,8.6,81.4,47.5h-351C81.1,131.4,121.5,122.9,155.9,122.9z M243.2,99.8h13.6V74.2h-13.6L243.2,99.8
	L243.2,99.8z M488.4,203.1H447v-14.9c1.3-1.9,2.6-3.8,2.6-6.2c0-52.3-38.5-82.3-105.5-82.3h-64v-37c0-6.4-5.2-11.6-11.6-11.6h-36.8
	c-6.4,0-11.6,5.2-11.6,11.6v37.1h-64c-67.1,0-105.5,30-105.5,82.3c0,2.5,1.3,4.5,2.6,6.4v14.7H11.6c-6.4,0-11.6,5.2-11.6,11.6
	c0,6.4,5.2,11.6,11.6,11.6H53V380c0,38.1,31,69,69,69h255.9c38.1,0,69.1-31,69.1-69V226.2h41.3c6.4,0,11.6-5.2,11.6-11.6
	C500,208.2,494.8,203.1,488.4,203.1z"/>
</svg>
