<?xml version="1.0" encoding="utf-8"?>
<!-- Generator: Adobe Illustrator 24.0.0, SVG Export Plug-In . SVG Version: 6.00 Build 0)  -->
<svg version="1.1" id="Capa_1" xmlns="http://www.w3.org/2000/svg" xmlns:xlink="http://www.w3.org/1999/xlink" x="0px" y="0px"
	 viewBox="0 0 31 31" style="enable-background:new 0 0 31 31;" xml:space="preserve">
<style type="text/css">
	.st0{fill:#0071C3;}
	.st1{enable-background:new    ;}
</style>
<title>Group 14</title>
<desc>Created with Sketch.</desc>
<g id="MVP-1-_x2F__x2F_-Retiro-Tienda">
	<g id="PDP-Desktop-_x2F_-Retiro-con-Despacho-normal" transform="translate(-770.000000, -511.000000)">
		<g id="Group-12" transform="translate(770.000000, 508.000000)">
			<g id="Group-9" transform="translate(0.000000, 3.000000)">
				<g id="Group-13">
					<g id="Group-14">
						<g id="Group-10">
							<g id="Oval">
								<path class="st0" d="M15.5,31C7,31,0,24,0,15.5C0,7,7,0,15.5,0S31,7,31,15.5C31,24,24,31,15.5,31z M15.5,1
									C7.5,1,1,7.5,1,15.5C1,23.5,7.5,30,15.5,30S30,23.5,30,15.5C30,7.5,23.5,1,15.5,1z"/>
							</g>
						</g>
						<g class="st1">
							<path class="st0" d="M21.5,22.3c-0.4,0.4-1,0.6-1.6,0.6c-0.6,0-1.2-0.2-1.6-0.6s-0.6-0.9-0.6-1.6h-4.5c0,0.6-0.2,1.1-0.6,1.6
								s-1,0.6-1.6,0.6c-0.6,0-1.1-0.2-1.6-0.6s-0.6-0.9-0.6-1.6H6.6V9.6h11.1v3.3h3.9l2.8,2.8v5h-2.2
								C22.2,21.3,21.9,21.8,21.5,22.3z M16.6,19.6v-8.9H7.7v8.9h1.4c0.2-0.3,0.5-0.6,0.8-0.8c0.3-0.2,0.7-0.3,1.1-0.3
								c0.4,0,0.8,0.1,1.1,0.3c0.3,0.2,0.6,0.5,0.8,0.8H16.6z M11,19.6c-0.3,0-0.5,0.1-0.7,0.3c-0.2,0.2-0.3,0.5-0.3,0.8
								c0,0.3,0.1,0.5,0.3,0.8c0.2,0.2,0.5,0.3,0.7,0.3c0.3,0,0.6-0.1,0.8-0.3c0.2-0.2,0.3-0.5,0.3-0.8c0-0.3-0.1-0.6-0.3-0.8
								C11.6,19.7,11.4,19.6,11,19.6L11,19.6z M18.8,18.8c0.3-0.2,0.7-0.3,1.1-0.3c0.4,0,0.8,0.1,1.1,0.3c0.3,0.2,0.6,0.5,0.8,0.8
								h1.4v-2.2h-1.7c-0.2,0-0.3-0.1-0.4-0.2C21.1,17.1,21,17,21,16.8c0-0.1,0.1-0.3,0.2-0.4c0.1-0.1,0.2-0.2,0.4-0.2h1.7v-0.1
								L21.1,14h-3.4v5.6H18C18.2,19.3,18.5,19,18.8,18.8z M19.2,19.9c-0.2,0.2-0.3,0.5-0.3,0.8c0,0.3,0.1,0.5,0.3,0.8
								c0.2,0.2,0.5,0.3,0.7,0.3h0c0.3,0,0.5-0.1,0.7-0.3c0.2-0.2,0.3-0.5,0.3-0.8c0-0.3-0.1-0.6-0.3-0.8c-0.2-0.2-0.5-0.3-0.7-0.3
								C19.7,19.6,19.4,19.7,19.2,19.9z"/>
						</g>
					</g>
				</g>
			</g>
		</g>
	</g>
</g>
</svg>
