<?xml version="1.0" encoding="utf-8"?>
<!-- Generator: Adobe Illustrator 24.0.0, SVG Export Plug-In . SVG Version: 6.00 Build 0)  -->
<svg version="1.1" id="Capa_1" xmlns="http://www.w3.org/2000/svg" xmlns:xlink="http://www.w3.org/1999/xlink" x="0px" y="0px"
	 viewBox="0 0 30 30" style="enable-background:new 0 0 30 30;" xml:space="preserve">
<style type="text/css">
	.st0{enable-background:new    ;}
	.st1{fill:#FA6400;}
</style>
<title>Group 13</title>
<desc>Created with Sketch.</desc>
<g id="MVP-1-_x2F__x2F_-Retiro-Tienda">
	<g id="PDP-Desktop-_x2F_-Retiro-con-despacho-sin-costo" transform="translate(-972.000000, -512.000000)">
		<g id="Group-8" transform="translate(972.000000, 508.000000)">
			<g id="Group-7" transform="translate(0.000000, 4.000000)">
				<g id="Group-13">
					<g class="st0">
						<path class="st1" d="M15,6.5l5,3.3h2.8V22h-6.7v-4.4h-2.2V22H7.2V9.8h3.1L15,6.5z M8.3,10.9v10h4.4v-4.5h4.5v4.5h4.4v-10h-2
							L15,7.8l-4.3,3.1H8.3z"/>
					</g>
					<g id="Oval">
						<path class="st1" d="M15,30C6.7,30,0,23.3,0,15S6.7,0,15,0s15,6.7,15,15S23.3,30,15,30z M15,1C7.3,1,1,7.3,1,15s6.3,14,14,14
							s14-6.3,14-14S22.7,1,15,1z"/>
					</g>
				</g>
			</g>
		</g>
	</g>
</g>
</svg>
