<?xml version="1.0" encoding="utf-8"?>
<!-- Generator: Adobe Illustrator 25.4.1, SVG Export Plug-In . SVG Version: 6.00 Build 0)  -->
<svg version="1.1" id="Capa_1" xmlns="http://www.w3.org/2000/svg" xmlns:xlink="http://www.w3.org/1999/xlink" x="0px" y="0px"
	 viewBox="0 0 560 500" style="enable-background:new 0 0 560 500;" xml:space="preserve">
<style type="text/css">
	.st0{fill-rule:evenodd;clip-rule:evenodd;fill:#414042;}
</style>
<path class="st0" d="M425.7,390.5c-54.1,0-98.1-44-98.1-98.1c0-35.5,20-65.3,48.4-82.5l38.5,87.4c2,4.6,6.5,7.3,11.2,7.3
	c1.6,0,3.3-0.3,4.9-1.1c6.2-2.7,9-9.9,6.2-16.1L398.3,200c8.8-2.6,17.6-5.5,27.4-5.5c54.1,0,98.1,44,98.1,98.1
	S479.8,390.5,425.7,390.5z M252.1,260.9c-10-37-36.5-67.3-71.4-81.7l5.3-17.6h126.8L252.1,260.9z M173.6,203
	c30.7,13.6,51.7,42.8,56.2,77.2h-79.2L173.6,203z M134.2,390.5c-54.1,0-97.9-44-97.9-98.1s44-98.1,97.9-98.1
	c5.5,0,10.2,2.3,15.4,3.1l-27.1,91.4c-0.2,0.6,0.2,1.2,0.2,1.8c-0.1,0.6-0.8,1.1-0.8,1.7c0,1.1,0.9,1.8,1.2,2.8
	c0.4,1.6,0.8,2.9,1.7,4.2c1,1.3,2.1,2,3.5,2.9c0.9,0.5,1.3,1.6,2.4,1.9c1.2,0.3,2.4,0.5,3.5,0.5h95.6
	C223.5,352.8,184,390.5,134.2,390.5z M425.7,170c-13.2,0-25.7,2.7-37.7,6.5L374,144.4l0,0C358.1,107.3,348.3,85,310.7,85
	c-6.8,0-12.2,5.5-12.2,12.2s5.5,12.2,12.2,12.2c16.4,0,22.5,5.1,33.2,27.7H189v-21h32.8c6.8,0,12.2-5.5,12.2-12.2
	s-5.5-12.2-12.2-12.2h-58.6c-6.8,0-12.2,5.5-12.2,12.2s5.5,12.2,12.2,12.2h1.2v31.5l-7.3,24.7c-7.5-1.4-15.1-2.4-23-2.4
	c-67.5,0-122.4,54.9-122.4,122.5S66.7,415,134.2,415c65,0,117.9-51.2,121.8-115.2c0.4-0.5,1.3-0.3,1.6-0.9l83.8-137.2h13.4
	l10.8,24.7c-37.1,21-62.4,60.5-62.4,106.1c0,67.6,54.9,122.5,122.5,122.5s122.5-54.9,122.5-122.5S493.3,170,425.7,170z"/>
</svg>
