<?xml version="1.0" encoding="utf-8"?>
<!-- Generator: Adobe Illustrator 25.4.1, SVG Export Plug-In . SVG Version: 6.00 Build 0)  -->
<svg version="1.1" id="Capa_1" xmlns="http://www.w3.org/2000/svg" xmlns:xlink="http://www.w3.org/1999/xlink" x="0px" y="0px"
	 viewBox="0 0 500 500" style="enable-background:new 0 0 500 500;" xml:space="preserve">
<style type="text/css">
	.st0{fill-rule:evenodd;clip-rule:evenodd;fill:#414042;}
</style>
<path class="st0" d="M28.2,374.6v-1.7v-34h443.6v33.9v1.7L28.2,374.6L28.2,374.6z M28.2,248.5c0-9.9,8-18,18-18h12.5h48.4
	c0,0,0,0,0.1,0c0.1,0,0.1,0,0.2,0h334h12.5c10,0,18,8.1,18,18v65.6H28.2V248.5z M118.6,205.7l0.4-38.7l99.6,0.5l-0.1,38.2H118.6z
	 M381.5,205.7h-99.9l0.5-38.7l99.6,0.5L381.5,205.7z M71.1,81.8c0-9.9,8.1-18,18.1-18h321.8c10,0,18,8.1,18,18v123.9h-22.4v-38.2
	c0-14-11.4-25.4-25.5-25.4h-99c-14,0-25.5,11.3-25.5,25.4v38.2h-13.2v-38.2c0-14-11.3-25.4-25.4-25.4H119c-14,0-25.4,11.3-25.4,25.4
	v38.2H71.1V81.8z M453.8,205.7L453.8,205.7l-0.1-123.9c0-23.6-19.2-42.8-42.8-42.8H89.2c-23.7,0-42.9,19.1-42.9,42.8v123.9h-0.1
	c-23.6,0-42.8,19.1-42.8,42.7v77.9v46.4v14.1v61.7c0,6.9,5.6,12.4,12.4,12.4s12.4-5.5,12.4-12.4v-49.2h443.6v49.2
	c0,6.9,5.5,12.4,12.4,12.4s12.4-5.5,12.4-12.4v-61.7v-14.1v-46.4v-77.9C496.7,224.9,477.4,205.7,453.8,205.7z"/>
</svg>
