<?xml version="1.0" encoding="utf-8"?>
<!-- Generator: Adobe Illustrator 25.4.1, SVG Export Plug-In . SVG Version: 6.00 Build 0)  -->
<svg version="1.1" id="Capa_1" xmlns="http://www.w3.org/2000/svg" xmlns:xlink="http://www.w3.org/1999/xlink" x="0px" y="0px"
	 viewBox="0 0 500 500" style="enable-background:new 0 0 500 500;" xml:space="preserve">
<style type="text/css">
	.st0{fill-rule:evenodd;clip-rule:evenodd;fill:#414042;}
</style>
<path class="st0" d="M400.3,437.7H101.5c-12.3,0-22.6-9-24.6-20.8H87h115.5h222.3C422.9,428.6,412.6,437.7,400.3,437.7z
	 M110.7,176.4c3.6,0.6,6.9,2.2,10.7,2.2h22.8l0.3,61.4c0.2,53.5,13.3,106.2,38.1,153.4H99.3L110.7,176.4z M121.4,62.3h208.8
	c25.6,0,46.4,20.8,46.4,46.4s-20.8,46.5-46.4,46.5h-58.5H121.5c-25.6,0-46.4-20.8-46.4-46.5S95.7,62.3,121.4,62.3z M337.1,178.6v6.8
	h-53.8v-6.8h46.8H337.1z M407.2,273c0,53.5-43.6,97.1-97.1,97.1s-97-43.6-97-97.1v-27.2h194V273z M436.8,393.5H209.6
	c-26.9-46.8-41.6-99.6-41.8-153.5l-0.3-61.4H260v18.5c0,6.5,5.2,11.6,11.7,11.6h26.8v13.8h-97.1c-6.5,0-11.7,5.2-11.7,11.6V273
	c0,66.4,54,120.4,120.4,120.4c66.4,0.2,120.4-53.8,120.4-120.3v-38.8c0-6.5-5.2-11.6-11.7-11.6h-97.1v-13.8h26.9
	c6.5,0,11.7-5.2,11.7-11.6V171c23.2-11.4,39.5-34.7,39.5-62.2c0-38.5-31.3-69.8-69.8-69.8H121.4c-38.6,0-69.9,31.3-69.9,69.8
	c0,26.1,14.9,47.9,36.2,59.9L76,393.5H64.9c-6.5,0-11.7,5.2-11.7,11.6v7.7c0,26.6,21.7,48.2,48.3,48.2h298.9
	c26.5,0,48.2-21.6,48.2-48.2v-7.7C448.5,398.7,443.3,393.5,436.8,393.5z"/>
</svg>
