<?xml version="1.0" encoding="utf-8"?>
<!-- Generator: Adobe Illustrator 25.4.1, SVG Export Plug-In . SVG Version: 6.00 Build 0)  -->
<svg version="1.1" id="Capa_1" xmlns="http://www.w3.org/2000/svg" xmlns:xlink="http://www.w3.org/1999/xlink" x="0px" y="0px"
	 viewBox="0 0 500 500" style="enable-background:new 0 0 500 500;" xml:space="preserve">
<style type="text/css">
	.st0{fill-rule:evenodd;clip-rule:evenodd;fill:#414042;}
</style>
<path class="st0" d="M340.9,39.2c6.5-1.1,12.3,2.7,14,8.6l0.3,1.1l7.8,41.5l32.1-6.1c3.2-0.4,6.5,0.1,9.2,1.9c2.4,1.6,4.1,4,4.9,6.7
	l0.3,1.2l11.4,60.6c0.6,3.2-0.1,6.5-1.9,9.2c-1.6,2.4-4,4.1-6.7,4.9l-1.2,0.3l-32.2,6l4.3,23.1l32.2-6c7-1.2,12.4,2.7,14,8.6
	l0.3,1.1l11.4,60.6c0.6,3.2-0.1,6.5-1.9,9.2c-1.6,2.4-4,4.1-6.7,4.9l-1.2,0.3l-32.2,6l4.4,23.1l32.1-6c6.6-1.2,12.4,2.7,14,8.6
	l0.3,1.1l11.4,60.6c0.6,3.2-0.1,6.5-1.9,9.2c-1.6,2.4-4,4.1-6.7,4.9l-1.2,0.3l-32.2,6l7.8,41.5c0.6,3.2-0.1,6.5-1.9,9.2
	c-1.6,2.4-4,4.1-6.7,4.9l-1.2,0.3l-76.8,14.4c-0.8,0.2-1.5,0.2-2.3,0.2c-5.4,0-10.2-3.6-11.7-8.8l-0.3-1.1l-64.1-341v337.3
	c0,6.4-4.8,11.6-11,12.2l-1.2,0.1H50.7c-6.4,0-11.6-4.8-12.2-11l-0.1-1.2V57.5c0-6.4,4.8-11.6,11-12.2l1.2-0.1h199.4
	c5.9,0,10.2,4.5,11.3,10.1c0.8-0.4,1.4-1.2,2.1-1.6l0.6-0.2L340.9,39.2z M237.9,69.7h-175v365.4h175V69.7z M333.4,65.5l-52.7,9.9
	l67.5,359.1l52.7-9.9l-19.2-102.1l-20.3-107.8l0,0L333.4,65.5z M188.9,328.2c17,0,30.8,13.8,30.8,30.8c0,17-13.8,30.8-30.8,30.8
	c-17,0-30.8-13.8-30.8-30.8C158.1,342,171.9,328.2,188.9,328.2z M111.9,328.2c17,0,30.8,13.8,30.8,30.8c0,17-13.8,30.8-30.8,30.8
	c-17,0-30.8-13.8-30.8-30.8C81.1,342,94.9,328.2,111.9,328.2z M428.1,326.3L408,330l6.9,36.5l20.1-3.7L428.1,326.3z M188.9,352.6
	c-3.5,0-6.4,2.9-6.4,6.4c0,7,12.7,7,12.7,0C195.3,355.5,192.4,352.6,188.9,352.6z M111.9,352.6c-3.5,0-6.3,2.9-6.3,6.4
	c0,7,12.7,7,12.7,0C118.2,355.5,115.4,352.6,111.9,352.6z M188.9,221.6c17,0,30.8,13.8,30.8,30.8c0,17-13.8,30.8-30.8,30.8
	c-17,0-30.8-13.8-30.8-30.8C158.1,235.4,171.9,221.6,188.9,221.6z M111.9,221.6c17,0,30.8,13.8,30.8,30.8c0,17-13.8,30.8-30.8,30.8
	c-17,0-30.8-13.8-30.8-30.8C81.1,235.4,94.9,221.6,111.9,221.6z M407.9,218.4l-20.1,3.8l1.9,10.2l5,26.3l20.1-3.7L407.9,218.4z
	 M188.9,246.1c-3.5,0-6.4,2.9-6.4,6.4c0,7,12.7,7,12.7,0C195.3,248.9,192.4,246.1,188.9,246.1z M111.9,246.1c-3.5,0-6.3,2.9-6.3,6.4
	c0,7,12.7,7,12.7,0C118.2,248.9,115.4,246.1,111.9,246.1z M188.9,115.1c17,0,30.8,13.8,30.8,30.8s-13.8,30.8-30.8,30.8
	c-17,0-30.8-13.8-30.8-30.8S171.9,115.1,188.9,115.1z M111.9,115.1c17,0,30.8,13.8,30.8,30.8s-13.8,30.8-30.8,30.8
	c-17,0-30.8-13.8-30.8-30.8S94.9,115.1,111.9,115.1z M111.9,139.6c-3.5,0-6.3,2.8-6.3,6.3c0,7.1,12.7,7.1,12.7,0
	C118.2,142.4,115.4,139.6,111.9,139.6z M188.9,139.6c-3.5,0-6.4,2.8-6.4,6.3c0,7,12.7,7,12.7,0C195.3,142.4,192.4,139.6,188.9,139.6
	z M387.7,110.7l-20.1,3.8l6.8,36.5l20.1-3.7L387.7,110.7z"/>
</svg>
