<?xml version="1.0" encoding="utf-8"?>
<!-- Generator: Adobe Illustrator 23.0.1, SVG Export Plug-In . SVG Version: 6.00 Build 0)  -->
<svg version="1.1" id="Capa_1" xmlns="http://www.w3.org/2000/svg" xmlns:xlink="http://www.w3.org/1999/xlink" x="0px" y="0px"
	 viewBox="0 0 42 40.81" style="enable-background:new 0 0 42 40.81;" xml:space="preserve">
<style type="text/css">
	.st0{enable-background:new    ;}
	.st1{fill:#0071CE;}
</style>
<title>юда</title>
<desc>Created with Sketch.</desc>
<g>
	<g id="Artboard" transform="translate(-220.000000, -1193.000000)">
		<g class="st0">
			<path class="st1" d="M231.65,1204.65c0-1.29,0.25-2.49,0.74-3.61s1.16-2.11,2.01-2.95c0.85-0.85,1.85-1.52,2.99-2.01
				c1.12-0.49,2.32-0.74,3.61-0.74c1.29,0,2.49,0.25,3.61,0.74c1.15,0.49,2.15,1.16,2.99,2.01s1.52,1.83,2.01,2.95
				s0.74,2.32,0.74,3.61v4.68h4.63v23.34h-27.97v-23.34h4.63V1204.65z M252.65,1230.32v-18.66h-23.3v18.66H252.65z M248.01,1209.32
				v-4.68c0-1.91-0.68-3.55-2.05-4.92s-3.02-2.05-4.96-2.05c-1.94,0-3.6,0.68-4.96,2.05c-1.37,1.37-2.05,3.01-2.05,4.92v4.68H248.01
				z M240.18,1225.32c-0.22-0.22-0.33-0.49-0.33-0.82v-4.68c0-0.33,0.11-0.6,0.33-0.82c0.22-0.22,0.49-0.33,0.82-0.33
				s0.6,0.11,0.82,0.33c0.22,0.22,0.33,0.49,0.33,0.82v4.68c0,0.33-0.11,0.6-0.33,0.82c-0.22,0.22-0.49,0.33-0.82,0.33
				S240.4,1225.54,240.18,1225.32z"/>
		</g>
	</g>
</g>
</svg>
