<?xml version="1.0" encoding="utf-8"?>
<!-- Generator: Adobe Illustrator 25.4.1, SVG Export Plug-In . SVG Version: 6.00 Build 0)  -->
<svg version="1.1" id="Capa_1" xmlns="http://www.w3.org/2000/svg" xmlns:xlink="http://www.w3.org/1999/xlink" x="0px" y="0px"
	 viewBox="0 0 500 500" style="enable-background:new 0 0 500 500;" xml:space="preserve">
<style type="text/css">
	.st0{fill-rule:evenodd;clip-rule:evenodd;fill:#414042;}
</style>
<path class="st0" d="M29.1,89.2c25.9-40.9,83.4-53.3,121.7-41c13.1,4.2,22.7,11.2,28.9,19.9c22.8-11.7,47.1-19.5,71.9-18
	c23.5,0.2,46.6,7.4,68.4,18.5c6.1-8.9,15.7-16.1,29-20.4c38.4-12.2,95.8,0,121.9,41c28.4,44.8,40.9,150.8,14.9,197.7
	c-9,16.1-20.5,22.2-30.5,24.1c3.2,14.7,4.8,29.7,4.8,43.2c0,60.2-44.3,102.2-107.7,102.2c-6.6,0-12.9-0.4-19.2-1.2
	c-55.1-7.3-111.1-7.4-166.5,0c-6.2,0.8-12.6,1.2-19.1,1.2c-63.4,0-107.8-42-107.8-102.2c0-13.6,1.6-28.5,4.8-43.2
	c-10-1.9-21.5-8-30.4-24.1C-11.9,239.9,0.8,134,29.1,89.2z M251.3,76.6c-21.6,0.6-44.4,6.6-64.7,17.5c-1.4,13.4-10.5,30.1-22,49.4
	l-8.5,14.1c-7.2,12-14.1,24-18.8,35l-1.5,3.6l-12.3,31.5c-13.6,34.6-27.8,65.3-50.1,77.6c-5.6,15.3-6.8,33.1-6.8,48.8
	c0,45.3,32.6,75.6,81.2,75.6c4,0,8-0.2,11.8-0.6l3.8-0.5c21.3-2.8,42.8-4,64.2-4.6l9.2-0.2v-38.3c-12.6-3.3-24-9.7-31.3-20.8
	l-1.3-2.1l-9.7-16.8c-5.5-9.6-5.5-21,0-30.6c5.2-9,14.3-14.6,24.6-15.2l1.9-0.1h58.2c11.1,0,21,5.7,26.5,15.4
	c5.2,9,5.4,19.7,0.8,28.9l-0.9,1.7l-9.7,16.7c-6.8,11.7-17.8,18.6-30.3,22.3l-2.3,0.7v38.3c24.6,0.5,49.1,1.6,73.4,4.9
	c5.1,0.7,10.4,1,15.7,1c48.5,0,81.1-30.4,81.1-75.6c0-15.8-1.1-33.5-6.8-48.9c-21.6-11.9-35.6-41.1-48.8-74.3l-5.4-13.9l-8.1-20.8
	c-5.2-13.1-13.9-27.9-22.7-42.5l-6.1-10.1c-11.4-19.1-20.4-35.6-21.9-49C294,83.5,272.7,76.8,251.3,76.6z M279.1,326.5h-58.2
	c-2,0-3,1.1-3.5,2c-0.4,0.7-0.9,1.9-0.3,3.4l0.3,0.7l9.7,16.7c9.2,16.1,34.7,16.6,44.9,1.5l0.9-1.5l9.7-16.8c0.9-1.7,0.6-3.1,0-4.1
	c-0.4-0.6-1.2-1.7-2.7-2L279.1,326.5z M120.5,70.3c-25.8,0-55,11.1-68.9,33.1c-23.4,37-34.9,133.2-14.2,170.6
	c6.2,11.3,13.4,12.1,15.5,11.4c17.8-0.1,31.1-29.9,44.6-64.4l13.4-34.5c5.3-13.1,13-26.8,21.1-40.3l12.6-21
	c8.2-13.9,15.7-27.4,16.1-34.1c0.4-10.1-11-15.2-17.9-17.4C136,71.4,128.4,70.3,120.5,70.3z M379.6,70.3c-8,0-15.7,1.1-22.5,3.2
	c-6.8,2.2-18.2,7.3-17.7,17.3c0.4,8.5,12.7,28.8,22.7,45.2l6,10.1c7,11.8,13.8,23.8,18.9,35.3l2.1,4.9l8.2,21.1l5.1,13.2
	c13.5,34.7,27,64.5,44.8,64.7l0.6-0.1c2.4-0.4,9-1,14.8-11.2c20.8-37.4,9.3-133.6-14.1-170.6C434.4,81.3,405.3,70.3,379.6,70.3z
	 M186.5,201.9c11.5,0,20.9,9.3,20.9,20.8c0,11.5-9.3,20.9-20.9,20.9c-11.5,0-20.9-9.3-20.9-20.9
	C165.6,211.2,174.9,201.9,186.5,201.9z M313.5,201.9c11.5,0,20.9,9.3,20.9,20.8c0,11.5-9.3,20.9-20.9,20.9
	c-11.5,0-20.9-9.3-20.9-20.9C292.7,211.2,302,201.9,313.5,201.9z"/>
</svg>
