<?xml version="1.0" encoding="utf-8"?>
<!-- Generator: Adobe Illustrator 25.4.1, SVG Export Plug-In . SVG Version: 6.00 Build 0)  -->
<svg version="1.1" id="Capa_1" xmlns="http://www.w3.org/2000/svg" xmlns:xlink="http://www.w3.org/1999/xlink" x="0px" y="0px"
	 viewBox="0 0 34 40" style="enable-background:new 0 0 34 40;" xml:space="preserve">
<style type="text/css">
	.st0{fill:#0071DC;}
	.st1{fill:#FFFFFF;}
	.st2{fill:#F9B522;}
</style>
<g>
	<path class="st0" d="M33.9,22.8c-0.1-0.4-0.4-0.8-0.8-1l0,0l-1.2-0.5l1.1-0.6l0,0c0.4-0.2,0.6-0.6,0.7-1c0.1-0.5,0-1.1-0.3-1.5
		c-0.4-0.6-1-0.9-1.6-0.9c-0.3,0-0.6,0.1-0.9,0.3l0,0l-1,0.8l0-1.3l0-0.1c0-0.5-0.3-1-0.8-1.3c-1.5-4-5-7.1-9.3-8c0,0,0,0,0,0
		c-0.1,0-0.3,0-0.4-0.1c0,0-0.1,0-0.1,0c-0.1,0-0.2,0-0.4,0c-0.1,0-0.1,0-0.2,0c-0.1,0-0.1,0-0.2,0c-0.1,0-0.2,0-0.3,0
		c-0.1,0-0.2,0-0.2,0c-0.1,0-0.1,0-0.2,0c-0.1,0-0.2,0-0.3,0c0,0,0,0-0.1,0c0,0,0,0,0,0c0,0,0,0,0,0c-3,0-5.7,1-7.8,2.8
		C9.1,10.1,8.7,10,8.2,10c0,0-0.1,0-0.1,0c-0.7,0-1.5,0.2-2.1,0.6c-0.4-0.3-0.9-0.4-1.4-0.4c0,0,0,0,0,0c0,0-0.1,0-0.1,0
		c-0.9,0-1.6,0.7-1.6,1.6l0,7.4l0,0c0,0.1,0,0.2,0.1,0.3C1.2,20.4,0,22.2,0,24.2c0,1.5,0.6,2.8,1.6,3.8c1,1,2.4,1.6,3.8,1.6
		c0.1,0,0.1,0,0.2,0c1,0,1.9-0.3,2.7-0.8c0.2,0.3,0.5,0.5,0.8,0.5c2.2,1.9,5.1,3.1,8.3,3.1c3.1,0,5.8-1.1,8-2.9
		c2.5-0.3,4.4-2.5,4.4-5.3l1.5,0.9l0,0c0.2,0.1,0.5,0.2,0.7,0.2c0.7,0,1.3-0.4,1.7-1.1C34,23.9,34.1,23.3,33.9,22.8z"/>
	<g>
		<path class="st1" d="M4.1,11.7c0-0.2,0.2-0.4,0.4-0.4c0,0,0,0,0,0c0.6,0,1.1,0.4,1.2,1c0.6-0.7,1.5-1.1,2.4-1.1
			c1.2,0,1.7,0.4,2.4,1.2c0.6-0.8,1.6-1.2,2.6-1.2c2.6,0,3.2,1.6,3.2,3.7v4.1c0,0.2-0.2,0.4-0.4,0.4c0,0,0,0,0,0h-1.4
			c-0.2,0-0.4-0.2-0.4-0.4v-4.1c0-1-0.4-1.7-1.4-1.7c-0.6-0.1-1.2,0.3-1.5,0.8c0,0,0,0.4,0,0.8v2.1c0,0.2-0.2,0.4-0.4,0.4H9.5
			c-0.2,0-0.4-0.2-0.4-0.4c0,0,0,0,0,0v-2c0-1-0.3-1.7-1.3-1.7s-1.3,0.7-1.5,1.2v4.6c0,0.2-0.2,0.4-0.4,0.4H4.5
			c-0.2,0-0.4-0.2-0.4-0.4L4.1,11.7z"/>
		<path class="st1" d="M17,10.7c0-0.7,0.6-1.4,1.3-1.4c0,0,0,0,0,0c0.8,0,1.4,0.6,1.4,1.3c0,0,0,0,0,0c0,0.8-0.6,1.4-1.4,1.4
			c0,0,0,0,0,0C17.6,12.1,17,11.5,17,10.7C17,10.7,17,10.7,17,10.7z"/>
		<path class="st1" d="M17.4,13.2c0-0.2,0.2-0.4,0.4-0.4l0,0h1.3c0.2,0,0.4,0.2,0.4,0.4l0,0v5.8c0,0.2-0.2,0.4-0.4,0.4h-1.3
			c-0.2,0-0.4-0.2-0.4-0.4V13.2z"/>
		<path class="st1" d="M5.4,20.1c1.1,0,2.2,0.5,3,1.3c0.2,0.2,0.1,0.4-0.1,0.6l-0.7,0.8c-0.2,0.2-0.4,0.1-0.5-0.1
			c-0.4-0.4-1-0.7-1.6-0.7c-1.2,0-2.1,0.9-2.1,2.1c0,0,0,0.1,0,0.1c0,1.2,0.8,2.2,2.1,2.2c0.7,0,1.3-0.3,1.7-0.9
			c0.1-0.1,0.3-0.2,0.5-0.1l0.8,0.7c0.2,0.2,0.3,0.4,0.1,0.6c-0.7,1.1-1.9,1.7-3.2,1.7c-2.3,0-4.2-1.9-4.2-4.2
			C1.3,21.9,3.1,20.1,5.4,20.1L5.4,20.1z"/>
		<path class="st1" d="M9.1,18.7c0-0.2,0.2-0.4,0.4-0.4h1.4c0.2,0,0.4,0.2,0.4,0.4v9.1c0,0.2-0.2,0.4-0.4,0.4H9.5
			c-0.2,0-0.4-0.2-0.4-0.4L9.1,18.7z"/>
		<path class="st1" d="M12.3,20.6c0-0.2,0.2-0.4,0.4-0.4c0,0,0,0,0,0h1.4c0.2,0,0.4,0.2,0.4,0.4c0,0,0,0,0,0v4.2
			c0,1.1,0.4,1.6,1.4,1.6c0.9,0,1.3-0.8,1.4-1.5v-4.3c0-0.3,0.1-0.4,0.4-0.4H19c0.2,0,0.4,0.2,0.4,0.4c0,0,0,0,0,0v7.3
			c0,0.2-0.2,0.4-0.4,0.4c0,0,0,0,0,0c-0.6,0-1.2-0.4-1.2-1c-0.6,0.7-1.5,1.1-2.4,1.1c-2.5,0-3-1.5-3-3.6L12.3,20.6z"/>
		<path class="st1" d="M20.6,18c0-0.2,0.2-0.4,0.4-0.4h1.4c0.2,0,0.4,0.2,0.4,0.4v2.5c0.6-0.2,1.3-0.3,2-0.3c2.4,0,3.9,1.8,3.9,4.2
			c0,2.3-1.6,4.2-3.8,4.2c-1,0-1.9-0.4-2.6-1.1c-0.1,0.6-0.6,1-1.2,1c-0.2,0-0.4-0.1-0.4-0.3c0,0,0,0,0,0L20.6,18z M22.7,25.3
			c0.3,0.7,1,1.1,1.8,1.1c1.2,0,1.9-1.1,1.9-2.2c0-1.1-0.7-2.2-2-2.2c-0.6,0-1.2,0.1-1.7,0.5V25.3z"/>
		<path class="st2" d="M28.1,19.9c-0.2,0-0.4-0.1-0.5-0.3l-0.4-2.6c0-0.3,0.3-0.5,0.7-0.5c0.4,0,0.7,0.2,0.7,0.4l-0.1,2.6
			C28.5,19.8,28.4,19.9,28.1,19.9L28.1,19.9z M29.6,20.7c0.1,0.2,0.3,0.3,0.5,0.2l2.3-1.2c0.2-0.1,0.2-0.5,0-0.8
			c-0.2-0.3-0.6-0.5-0.8-0.3l-2.1,1.6C29.4,20.3,29.4,20.5,29.6,20.7L29.6,20.7z M29.7,22.3c-0.1,0.2-0.1,0.4,0,0.5l2.2,1.4
			c0.2,0.1,0.6-0.1,0.7-0.4c0.2-0.3,0.1-0.7-0.1-0.8l-2.4-1C30,22,29.7,22.1,29.7,22.3L29.7,22.3z"/>
	</g>
</g>
</svg>
