<?xml version="1.0" encoding="utf-8"?>
<!-- Generator: Adobe Illustrator 25.4.1, SVG Export Plug-In . SVG Version: 6.00 Build 0)  -->
<svg version="1.1" id="Capa_1" xmlns="http://www.w3.org/2000/svg" xmlns:xlink="http://www.w3.org/1999/xlink" x="0px" y="0px"
	 viewBox="0 0 500 500" style="enable-background:new 0 0 500 500;" xml:space="preserve">
<style type="text/css">
	.st0{fill-rule:evenodd;clip-rule:evenodd;fill:#414042;}
</style>
<path class="st0" d="M457,301.3c0,32.2-26.3,58.5-58.5,58.5h-297c-32.2,0-58.5-26.3-58.5-58.5V197.6c0-9,3.9-17.7,10.5-23.7
	c6-5.4,13.5-8.3,21.5-8.3c1,0,2.1,0,3.2,0.2c16.2,1.6,28.9,16.3,28.9,33.8v72.6v25.6l0,0c0,6.6,5.3,11.8,11.8,11.8h262
	c6.6,0,11.8-5.3,11.8-11.8l0,0v-25.6v-72.6c0-17.4,12.6-32.2,28.9-33.8c9.2-0.7,18,2,24.7,8.1c6.6,6,10.5,14.7,10.5,23.7L457,301.3
	L457,301.3z M130.8,286v-13.8c0-10.1,8.1-18.2,18.2-18.2h202.1c10.1,0,18.2,8.1,18.2,18.2V286H130.8z M153.5,62.6h193
	c36.8,0,66.7,29.9,66.7,66.7v14.8c-25,5.7-44,28.3-44,55.4V235c-5.5-2.8-11.5-4.6-18.2-4.6H148.9c-6.6,0-12.5,1.8-18.2,4.6v-35.4
	c0-27.1-19-49.8-44-55.4v-14.8C86.8,92.5,116.7,62.6,153.5,62.6z M462.4,156.4c-7.2-6.6-16.1-10.1-25.6-12.2v-14.9
	c0-49.8-40.5-90.3-90.3-90.3h-193c-49.8,0-90.3,40.5-90.3,90.3v14.8c-9.4,2.1-18.4,5.7-25.6,12.3c-11.6,10.5-18.3,25.6-18.3,41.2
	v103.7c0,38.9,27.8,70.1,64.2,78.5l7.2,81.2h22.1l6.8-77.6h260.5l6.8,77.6h22.1l7.2-81.2c36.4-8.4,64.2-39.6,64.2-78.5V197.6
	C480.7,181.9,474,166.9,462.4,156.4z"/>
</svg>
