<?xml version="1.0" encoding="utf-8"?>
<!-- Generator: Adobe Illustrator 25.4.1, SVG Export Plug-In . SVG Version: 6.00 Build 0)  -->
<svg version="1.1" id="Capa_1" xmlns="http://www.w3.org/2000/svg" xmlns:xlink="http://www.w3.org/1999/xlink" x="0px" y="0px"
	 viewBox="0 0 500 500" style="enable-background:new 0 0 500 500;" xml:space="preserve">
<style type="text/css">
	.st0{fill-rule:evenodd;clip-rule:evenodd;fill:#414042;}
	.st1{fill:#414042;}
</style>
<g id="Page-1">
	<g id="Artboard-Copy-8" transform="translate(-511.000000, -119.000000)">
		<g id="Group-418" transform="translate(56.000000, 42.000000)">
			<g id="Group-117" transform="translate(455.000000, 77.000000)">
				<g id="Clip-116">
					<g id="path-1_2_">
						<path class="st0" d="M114.6,484.5c-13.4,0-24.3-10.9-24.3-24.3V40c0-13.1,10.4-23.9,23.3-24.4v-0.1h271.8
							c13.4,0,24.3,10.9,24.3,24.4v420.3c0,13.4-10.9,24.3-24.3,24.3H114.6z M110.9,460.1c0,2.1,1.6,3.7,3.7,3.7h270.8
							c1,0,1.9-0.4,2.5-1.1c0.7-0.7,1-1.6,1-2.6l0-32.4c-0.1,0-0.1,0-0.2,0c-1.1,0.3-2.2,0.6-3.5,0.6H114.6c-1.3,0-2.4-0.3-3.5-0.6
							c-0.1,0-0.1,0-0.2,0V460.1z M111.1,404.1c0,2,1.6,3.6,3.7,3.7l270.5,0c2,0,3.7-1.7,3.7-3.7v-1h0.2V204.3H111.1V404.1z
							 M389.1,183.6V39.9c0-2-1.7-3.7-3.7-3.7H114.6c-2,0-3.7,1.7-3.7,3.7v143.7H389.1z M127.6,316.4v-76.7h20.7v76.7H127.6z
							 M127.6,148.3V71.6h20.7v76.7H127.6z"/>
						<path class="st1" d="M385.4,16.5c12.9,0,23.3,10.5,23.3,23.4v420.3c0,12.8-10.4,23.3-23.3,23.3H114.6
							c-12.8,0-23.3-10.4-23.3-23.3V40c0-12.9,10.4-23.4,23.3-23.4v-0.1H385.4 M109.9,184.6h280.2V39.9c0-2.6-2.1-4.7-4.7-4.7H114.6
							c-2.6,0-4.7,2.1-4.7,4.7V184.6 M114.8,408.8h270.5c2.5,0,4.7-2.1,4.7-4.7h0.2V203.3H110.1v200.8
							C110.1,406.7,112.2,408.7,114.8,408.8 M114.6,427.4c-1.7,0-3.2-0.6-4.7-0.9v33.6c0,2.7,2.1,4.7,4.7,4.7h270.8
							c2.6,0,4.6-2.1,4.5-4.7v-33.6c-1.5,0.3-3,0.9-4.7,0.9H114.6 M147.3,72.6v74.7h-18.7V72.6H147.3 M147.3,240.7v74.7h-18.7v-74.7
							H147.3 M385.4,14.5H114.6h-2v0.2c-13,1-23.3,12-23.3,25.3v420.2c0,14,11.3,25.3,25.3,25.3h270.8c14,0,25.3-11.3,25.3-25.3
							V39.9C410.7,25.9,399.4,14.5,385.4,14.5L385.4,14.5z M111.9,182.6V39.9c0-1.5,1.2-2.7,2.7-2.7h270.8c1.5,0,2.7,1.2,2.7,2.7
							v142.7H111.9L111.9,182.6z M112.1,205.3h276.1v196.8H388v2c0,1.4-1.3,2.7-2.7,2.7H114.8c-1.6-0.1-2.7-1.2-2.7-2.7V205.3
							L112.1,205.3z M114.6,429.4h270.6c1,0,1.9-0.2,2.7-0.3v31v0l0,0c0,0.7-0.2,1.4-0.7,1.9c-0.5,0.5-1.1,0.8-1.8,0.8H114.6
							c-1.5,0-2.7-1.2-2.7-2.7v-31C112.7,429.2,113.6,429.4,114.6,429.4L114.6,429.4z M149.3,70.6h-2h-18.7h-2v2v74.7v2h2h18.7h2v-2
							V72.6V70.6L149.3,70.6z M149.3,238.7h-2h-18.7h-2v2v74.7v2h2h18.7h2v-2v-74.7V238.7L149.3,238.7z"/>
					</g>
				</g>
			</g>
		</g>
	</g>
</g>
</svg>
