<?xml version="1.0" encoding="UTF-8"?>
<svg width="37px" height="42px" viewBox="0 0 37 42" version="1.1" xmlns="http://www.w3.org/2000/svg" xmlns:xlink="http://www.w3.org/1999/xlink">
    <!-- Generator: Sketch 55.2 (78181) - https://sketchapp.com -->
    <title>Spark</title>
    <desc>Created with Sketch.</desc>
    <g id="Page-1" stroke="none" stroke-width="1" fill="none" fill-rule="evenodd">
        <g id="Artboard" transform="translate(-2.000000, 0.000000)" fill="#FFC220" fill-rule="nonzero">
            <g id="Spark" transform="translate(2.000000, 0.000000)">
                <path d="M12.5136348,17.3287217 C12.9989238,16.4939959 12.9601089,15.5555933 12.4521437,15.1382304 L3.59630763,8.92916566 C2.67741467,8.39525578 1.2958066,9.0391754 0.512765972,10.3948387 C-0.273441137,11.7537707 -0.13432017,13.2680647 0.784572792,13.8019746 L10.588413,18.3673282 C11.2031193,18.5938849 12.0347808,18.1570124 12.5169034,17.3222866 L12.5136348,17.3287217 Z" id="6"></path>
                <path d="M12.5136348,24.0525647 C12.9989238,24.8873926 12.9601089,25.8256931 12.4521437,26.2464268 L3.59630763,32.4489543 C2.67741467,32.9828642 1.2958066,32.3389445 0.512765972,30.9832812 C-0.273441137,29.6275157 -0.13432017,28.1100553 0.784572792,27.5761454 L10.588413,23.0139582 C11.2031193,22.784235 12.0347808,23.2178389 12.5169034,24.0558333 L12.5136348,24.0525647 Z" id="5"></path>
                <path d="M18.3360719,27.4185465 C19.3002149,27.4185465 20.096228,27.91691 20.2029691,28.5639961 L21.1542419,39.335248 C21.1542419,40.4029657 19.9085883,41.2766086 18.3393406,41.2766086 C16.7732593,41.2766086 15.5275035,40.4029657 15.5275035,39.335248 L16.4787764,28.5639961 C16.582351,27.91691 17.378364,27.4185465 18.3393406,27.4185465 L18.3360719,27.4185465 Z" id="4"></path>
                <path d="M24.1627583,24.0545565 C24.6448809,23.2197286 25.4763381,22.7862268 26.0911465,23.0159501 L35.8949868,27.5748686 C36.8171483,28.1086763 36.9498342,29.6262389 36.1700622,30.985273 C35.3838551,32.3376677 34.0021448,32.9815874 33.0832519,32.4508439 L24.2274158,26.2450478 C23.7226172,25.8244163 23.6839044,24.8861159 24.1659248,24.0512879 L24.1627583,24.0545565 Z" id="3"></path>
                <path d="M24.1627583,17.3228893 C24.6448809,18.1577172 25.4763381,18.5944876 26.0911465,18.3647643 L35.8949868,13.8025772 C36.8171483,13.2687695 36.9498342,11.7544755 36.1700622,10.3955436 C35.3838551,9.03650943 34.0021448,8.3958584 33.0832519,8.92976833 L24.2274158,15.1388331 C23.7226172,15.5562981 23.6839044,16.4945986 24.1659248,17.3293244 L24.1627583,17.3228893 Z" id="2"></path>
                <path d="M18.3360719,13.9633835 C19.3002149,13.9633835 20.096228,13.4618534 20.2029691,12.8147673 L21.1542419,2.04341325 C21.1542419,0.975695583 19.9085883,0.102052686 18.3393406,0.102052686 C16.7732593,0.102052686 15.5275035,0.975695583 15.5275035,2.04341325 L16.4787764,12.8147673 C16.582351,13.4618534 17.378364,13.9633835 18.3393406,13.9633835 L18.3360719,13.9633835 Z" id="1"></path>
            </g>
        </g>
    </g>
</svg>