<?xml version="1.0" encoding="utf-8"?>
<!-- Generator: Adobe Illustrator 25.4.1, SVG Export Plug-In . SVG Version: 6.00 Build 0)  -->
<svg version="1.1" id="Capa_1" xmlns="http://www.w3.org/2000/svg" xmlns:xlink="http://www.w3.org/1999/xlink" x="0px" y="0px"
	 viewBox="0 0 500 500" style="enable-background:new 0 0 500 500;" xml:space="preserve">
<style type="text/css">
	.st0{fill-rule:evenodd;clip-rule:evenodd;fill:#414042;}
</style>
<path class="st0" d="M266.6,39c6.5,0,11.8,5.3,11.8,11.8c0,12.4-7.4,19.4-13.5,24.2l-4.7,3.5c-3.9,2.9-4.5,4-4.5,5.6
	c0,1.7,0.7,2.8,5.5,6.3l3.7,2.8c6.2,4.8,13.5,11.8,13.5,24.2c0,10.1-4.9,16-10,20.6l-1,0.9H306V108c0-6.2,4.7-11.2,10.7-11.7
	l1.1-0.1h59.9c6.2,0,11.2,4.7,11.7,10.7l0.1,1.1v35.5c26.1,8.9,46.1,30.9,51.3,59.5l0.4,2.4l16,107.3l8.9,70
	c4.7,37-20.4,71.8-56,77.4c-18.2,2.8-36.3-1.6-51-12.6c-14-10.6-23.2-25.7-26.1-42.9l-0.3-2.5l-9.7-75.9H176.9l-9.7,75.9
	c-2.3,18.3-11.7,34.3-26.4,45.4c-11.8,8.8-25.7,13.4-40.2,13.4c-3.6,0-7.1-0.3-10.7-0.9C54.9,454.5,30,421,33.6,384.7l0.3-2.1
	l9.1-71.3l15.8-106c4.7-31.2,27.3-54.5,56.4-62.6l2.2-0.6V108c0-6.2,4.7-11.2,10.7-11.7l1.1-0.1H189c6.2,0,11.2,4.7,11.7,10.7
	l0.1,1.1v30.9h35.4c3.4-6.3,8-11.4,12.1-14.4l2.1-1.6c3.9-2.9,4.5-4,4.5-5.5c0-1.6-0.6-2.6-4.5-5.5l-4.7-3.5
	c-6.2-4.8-13.5-11.8-13.5-24.2s7.4-19.4,13.5-24.2l4.7-3.5c3.6-2.8,4.4-3.8,4.5-5.2V51C254.8,44.3,260.1,39,266.6,39z M316.9,162.5
	H189.8c-0.3,0-0.3,0.2-0.5,0.3l-0.3,0.1h-54.9c-25.7,1-47,18.9-51.6,44l-0.3,1.9L66.1,316l-8.8,69.7c-3.1,24.5,13.2,47.4,36.2,51
	c11.6,1.6,23.6-1,33.1-8.2c9-6.8,14.9-16.4,16.9-27.4l0.3-2.1l11-86.2c0.7-5.5,5.2-9.7,10.7-10.2l1.1-0.1h166.8
	c5.5,0,10.3,3.9,11.5,9.2l0.2,1.1l11,86.2c1.5,11.9,7.6,22.4,17.2,29.5c9.5,7.2,21.1,10,33.1,8.2c22.5-3.6,38.6-25.5,36.5-49.3
	l-0.2-1.8l-9.1-71.5l-9.5-62.6l-6.4-42.6c-3.8-25.6-24.6-44.2-49.9-45.9l-2-0.1h-48.1c-0.3,0-0.3-0.2-0.5-0.3L316.9,162.5z
	 M142.2,178.6c26.3,0,47.6,21.3,47.6,47.6s-21.3,47.7-47.6,47.7s-47.7-21.3-47.7-47.7C94.5,200,115.9,178.6,142.2,178.6z M363,189.8
	c6.2,0,11.2,4.7,11.7,10.7l0.1,1.1v12.8h12.9c6.5,0,11.8,5.3,11.8,11.8c0,6.2-4.7,11.2-10.7,11.7l-1.1,0.1h-12.9v12.9
	c0,6.5-5.3,11.8-11.8,11.8c-6.2,0-11.2-4.7-11.7-10.7l-0.1-1.1V238h-12.9c-6.5,0-11.8-5.3-11.8-11.8c0-6.2,4.7-11.2,10.7-11.7
	l1.1-0.1h12.9v-12.8C351.2,195.1,356.4,189.8,363,189.8z M142.2,202.2c-13.3,0-24.1,10.7-24.1,24s10.8,24.1,24.1,24.1
	c13.3,0,24-10.8,24-24.1C166.2,212.9,155.5,202.2,142.2,202.2z M365.8,119.8h-36.2v19.2h34.3c0.4,0,0.9,0.2,1.3,0.3l0.7,0.1
	L365.8,119.8L365.8,119.8z M177.2,119.8H141v19.2h36.2V119.8z"/>
</svg>
