<?xml version="1.0" encoding="utf-8"?>
<!-- Generator: Adobe Illustrator 25.4.1, SVG Export Plug-In . SVG Version: 6.00 Build 0)  -->
<svg version="1.1" id="Capa_1" xmlns="http://www.w3.org/2000/svg" xmlns:xlink="http://www.w3.org/1999/xlink" x="0px" y="0px"
	 viewBox="0 0 500 500" style="enable-background:new 0 0 500 500;" xml:space="preserve">
<style type="text/css">
	.st0{fill-rule:evenodd;clip-rule:evenodd;fill:#414042;}
	.st1{fill:#414042;}
</style>
<g>
	<path class="st0" d="M127.6,499.4c-13.9,0-25.2-11.5-25.2-25.6V26.2c0-14.1,11.3-25.6,25.2-25.6h244.9c13.9,0,25.2,11.5,25.2,25.6
		v447.6c0,14.1-11.3,25.6-25.2,25.6H127.6z M123.4,473.8c0,2.4,1.8,4.2,4.1,4.2h244.9c2.4,0,4.1-1.8,4.1-4.2v-73.8H123.4V473.8z
		 M376.6,378.5v-277H123.4v277H376.6z M376.6,80.2v-54c0-2.4-1.8-4.2-4.1-4.2H127.6c-2.3,0-4.1,1.9-4.1,4.2v54H376.6z M250,459.6
		c-11.2,0-20.3-9.3-20.3-20.6s9.1-20.6,20.3-20.6c11.2,0,20.3,9.3,20.3,20.6S261.2,459.6,250,459.6z M200.2,61.8V40.4h99.5v21.4
		H200.2z"/>
	<path class="st1" d="M372.4,1.4c13.5,0,24.5,11.1,24.5,24.9v447.6c0,13.7-10.9,24.9-24.5,24.9H127.6c-13.5,0-24.5-11.1-24.5-24.9
		V26.2c0-13.7,10.9-24.9,24.5-24.9H372.4 M122.7,80.9h254.6V26.2c0-2.8-2.1-5-4.9-5H127.6c-2.7,0-4.9,2.2-4.9,5V80.9 M122.7,379.3
		h254.6V100.8H122.7V379.3 M127.6,478.8h244.9c2.8,0,4.9-2.2,4.9-5v-74.6H122.7v74.6C122.7,476.6,124.8,478.8,127.6,478.8
		 M298.9,41.1V61h-98V41.1H298.9 M250,419.1c10.7,0,19.6,9,19.6,19.9c0,10.9-8.9,19.9-19.6,19.9c-10.7,0-19.6-9-19.6-19.9
		C230.4,428,239.2,419.1,250,419.1 M372.4-0.1H127.6c-14.3,0-26,11.8-26,26.4v447.6c0,14.5,11.6,26.4,26,26.4h244.9
		c14.3,0,26-11.8,26-26.4V26.2C398.4,11.7,386.8-0.1,372.4-0.1L372.4-0.1z M124.2,79.4V26.2c0-1.9,1.5-3.5,3.4-3.5h244.9
		c1.9,0,3.4,1.5,3.4,3.5v53.2H124.2L124.2,79.4z M124.2,102.3h251.6v275.5H124.2V102.3L124.2,102.3z M124.2,400.7h251.6v73.1
		c0,2-1.5,3.5-3.4,3.5H127.6c-1.9,0-3.4-1.5-3.4-3.5V400.7L124.2,400.7z M300.4,39.6h-1.5h-98h-1.5v1.5V61v1.5h1.5h98h1.5V61V41.1
		V39.6L300.4,39.6z M250,417.6c-11.6,0-21.1,9.6-21.1,21.4c0,11.8,9.5,21.4,21.1,21.4s21.1-9.6,21.1-21.4
		C271.1,427.2,261.6,417.6,250,417.6L250,417.6z"/>
</g>
</svg>
