<?xml version="1.0" encoding="utf-8"?>
<!-- Generator: Adobe Illustrator 25.4.1, SVG Export Plug-In . SVG Version: 6.00 Build 0)  -->
<svg version="1.1" id="Capa_1" xmlns="http://www.w3.org/2000/svg" xmlns:xlink="http://www.w3.org/1999/xlink" x="0px" y="0px"
	 viewBox="0 0 500 500" style="enable-background:new 0 0 500 500;" xml:space="preserve">
<style type="text/css">
	.st0{fill-rule:evenodd;clip-rule:evenodd;fill:#414042;}
</style>
<path class="st0" d="M441.2,346H282.8h-65.6H58.8c-10.8,0-19.5-8.7-19.5-19.5v-15.4h421.3v15.4C460.6,337.2,451.9,346,441.2,346z
	 M229.5,436.8h41.2v-66.4h-41.2V436.8z M58.8,63.3h382.4c10.7,0,19.5,8.7,19.5,19.6v203.9H39.3V82.8C39.3,72.1,48,63.3,58.8,63.3z
	 M441.2,39H58.8c-24.2,0-43.9,19.7-43.9,43.8v243.7c0,24.2,19.8,43.8,43.9,43.8H205v66.4h-83.2c-6.8,0-12.2,5.5-12.2,12.1
	c0,6.8,5.5,12.1,12.2,12.1h95.5h65.6h95.5c6.8,0,12.2-5.5,12.2-12.1c0-6.8-5.5-12.1-12.2-12.1h-83.2v-66.4h146.2
	c24.2,0,43.8-19.7,43.8-43.8V82.8C485.1,58.7,465.4,39,441.2,39z"/>
</svg>
