<?xml version="1.0" encoding="utf-8"?>
<!-- Generator: Adobe Illustrator 26.0.2, SVG Export Plug-In . SVG Version: 6.00 Build 0)  -->
<svg version="1.1" id="Capa_1" xmlns="http://www.w3.org/2000/svg" xmlns:xlink="http://www.w3.org/1999/xlink" x="0px" y="0px"
	 viewBox="0 0 2500 2500" style="enable-background:new 0 0 2500 2500;" xml:space="preserve">
<style type="text/css">
	.st0{display:none;}
	.st1{display:inline;fill:#FFFFFF;}
	.st2{fill:#FFFFFF;}
</style>
<g id="Capa_2_00000157303933676838722320000000923240019355368115_" class="st0">
	<rect x="494.5" y="298.3" class="st1" width="1591" height="1939.8"/>
</g>
<g id="Capa_1_00000031187707724696137640000010491293014791099046_">
	<path class="st2" d="M2202.4,0H297.6C133.5,0,0,133.5,0,297.6v1904.8C0,2366.5,133.5,2500,297.6,2500h1904.8
		c164.1,0,297.6-133.5,297.6-297.6V297.6C2500,133.5,2366.5,0,2202.4,0 M1964.6,1090.7c-13.7,1.3-27.4,2-41.1,2.1
		c-150.4,0-290.7-75.8-373.2-201.7v686.7c0,280.3-227.2,507.6-507.6,507.6s-507.6-227.2-507.6-507.6s227.2-507.6,507.6-507.6l0,0
		c10.6,0,21,1,31.4,1.6V1322c-10.4-1.2-20.7-3.2-31.4-3.2c-143.1,0-259,116-259,259s116,259,259,259
		c143.1,0,269.5-112.7,269.5-255.8l2.5-1166.3H1554c22.6,214.6,195.6,382.2,410.8,397.9v278"/>
</g>
</svg>
