<?xml version="1.0" encoding="utf-8"?>
<!-- Generator: Adobe Illustrator 25.4.1, SVG Export Plug-In . SVG Version: 6.00 Build 0)  -->
<svg version="1.1" id="Capa_1" xmlns="http://www.w3.org/2000/svg" xmlns:xlink="http://www.w3.org/1999/xlink" x="0px" y="0px"
	 viewBox="0 0 500 500" style="enable-background:new 0 0 500 500;" xml:space="preserve">
<style type="text/css">
	.st0{fill-rule:evenodd;clip-rule:evenodd;fill:#414042;}
</style>
<path class="st0" d="M420,216.3c-10.5-8-25-19.4-31-25.2c-0.2-0.3-0.6-0.4-0.8-0.7c-17.7-23.7-15.7-69.9,8.8-95.6
	c7.5,4.6,15.4,8.7,22.5,14.1l52.9,40.1L420,216.3z M132.1,438.5h235.7v-28.9H132.1V438.5z M80,216.3L27.6,149l52.9-40.1
	c7.2-5.5,15.2-9.6,22.9-14.3c24.5,25.4,26.6,71,9.4,95c-0.6,0.6-1.4,0.8-1.8,1.6C105,197,90.5,208.3,80,216.3z M307.9,64.2
	c-4.5,15.8-17.7,38.4-57.6,39.6c-40.4-1.1-53.7-23.8-58.3-39.6c13.9,2.5,34.5,5.4,57.9,5.4C273.4,69.6,294.1,66.7,307.9,64.2z
	 M367.8,199.5v187.2H132.1V200.8c21.1-31.4,19.5-84.3-9.7-118.2c14.7-7.4,30-13.5,45.9-18.2c5.6,26.3,26.9,60.8,82,62.3
	c54.6-1.5,75.8-36,81.4-62.3c16,4.8,31.5,11,46.3,18.5C349.3,116.3,347.6,167.9,367.8,199.5z M495.5,137.7l-62.2-47.1
	C400.8,66,364.2,48.5,324.6,38.7c-0.8-0.2-1.5,0.5-2.3,0.5c-1.1-0.1-2.1-0.8-3.2-0.5c-0.3,0.1-32.9,8-69.1,8
	c-36.1,0-68.8-7.9-69.1-8c-1.1-0.3-2.1,0.4-3.2,0.5c-0.8,0-1.5-0.7-2.3-0.5C135.8,48.5,99.2,66,66.7,90.6L4.5,137.7
	c-2.4,1.8-4,4.6-4.4,7.6c-0.4,3,0.4,6.1,2.3,8.5l66.4,85.4c3.8,4.9,10.9,5.9,15.8,2.2c2.1-1.5,13.5-10.1,24.6-18.9v227.4
	c0,6.3,5.1,11.4,11.4,11.4h258.6c6.3,0,11.4-5.1,11.4-11.4V222.5c11.1,8.8,22.5,17.4,24.6,18.9c5,3.7,12,2.7,15.8-2.2l66.4-85.4
	c1.9-2.4,2.7-5.5,2.3-8.5C499.5,142.3,497.9,139.6,495.5,137.7z"/>
</svg>
